<svg width="1791" height="277" viewBox="0 0 1791 277" fill="none" xmlns="http://www.w3.org/2000/svg">
<path d="M54.9027 0.405232C55.6362 0.401555 56.3697 0.397878 57.1255 0.39409C59.5786 0.383094 62.0317 0.379216 64.4849 0.375401C66.2461 0.369133 68.0074 0.362486 69.7686 0.355488C75.5504 0.334478 81.3322 0.324085 87.114 0.314121C89.1088 0.310072 91.1036 0.305955 93.0984 0.301771C102.475 0.282723 111.852 0.268493 121.229 0.260159C132.029 0.2504 142.829 0.224114 153.629 0.183658C161.991 0.153417 170.353 0.138683 178.715 0.135378C183.702 0.133036 188.689 0.124185 193.676 0.0989171C198.375 0.0754926 203.074 0.0714604 207.773 0.0816784C209.488 0.0821705 211.203 0.0759486 212.918 0.0621224C231.596 -0.079934 246.269 4.04117 260.204 17.1462C270.25 27.5645 275.625 40.5283 275.671 54.9689C275.675 55.7065 275.679 56.4441 275.682 57.204C275.693 59.671 275.697 62.1379 275.701 64.6049C275.707 66.376 275.714 68.1471 275.721 69.9182C275.742 75.7325 275.752 81.5467 275.762 87.361C275.767 89.3669 275.771 91.3729 275.775 93.3788C275.794 102.808 275.808 112.237 275.816 121.667C275.826 132.527 275.852 143.388 275.893 154.248C275.923 162.657 275.938 171.066 275.941 179.475C275.944 184.49 275.952 189.504 275.978 194.519C276.001 199.245 276.005 203.97 275.995 208.695C275.994 210.42 276.001 212.144 276.014 213.868C276.13 229.212 274.001 241.903 264.524 254.552C263.978 255.282 263.431 256.012 262.868 256.763C253.104 268.784 239.731 274.385 224.665 276.167C217.76 276.874 210.846 276.831 203.913 276.811C202.309 276.814 200.706 276.817 199.102 276.822C194.795 276.831 190.487 276.827 186.179 276.821C181.642 276.816 177.104 276.821 172.567 276.824C164.952 276.827 157.336 276.823 149.721 276.813C140.953 276.802 132.186 276.806 123.418 276.817C115.851 276.826 108.283 276.827 100.716 276.822C96.2136 276.819 91.7113 276.818 87.209 276.825C82.9735 276.831 78.7381 276.827 74.5026 276.815C72.9609 276.813 71.4191 276.813 69.8773 276.818C49.6344 276.871 31.5682 274.73 16.114 260.302C2.64094 246.267 0.0659014 230.368 0.12012 211.711C0.114408 209.928 0.107441 208.144 0.0993223 206.361C0.0814646 201.544 0.0825443 196.728 0.0882635 191.912C0.0913663 187.879 0.0852525 183.846 0.0792265 179.813C0.0652069 170.292 0.0667205 160.771 0.0781279 151.251C0.0896047 141.456 0.0755352 131.661 0.0487318 121.867C0.0265202 113.432 0.0199509 104.996 0.0258093 96.5612C0.0291673 91.5346 0.026842 86.5081 0.0095587 81.4815C-0.00599557 76.7519 -0.00186534 72.0227 0.01686 67.293C0.0205226 65.5666 0.017508 63.8401 0.00697615 62.1137C-0.0902247 44.85 3.42207 29.7156 15.6492 16.8024C26.7264 6.267 39.6417 0.454941 54.9027 0.405232ZM55.5242 55.5524C55.5242 110.002 55.5242 164.452 55.5242 220.552C109.974 220.552 164.424 220.552 220.524 220.552C220.524 166.102 220.524 111.652 220.524 55.5524C166.074 55.5524 111.624 55.5524 55.5242 55.5524Z" fill="white"/>
<path d="M303.523 0.551706C340.855 0.469206 378.186 0.386706 416.648 0.301706C428.424 0.26529 440.2 0.228874 452.333 0.191355C466.742 0.173288 466.742 0.173288 473.493 0.169931C478.196 0.166213 482.899 0.151258 487.602 0.129404C493.611 0.101848 499.621 0.0937635 505.631 0.099417C507.829 0.0982358 510.028 0.0903749 512.227 0.0748456C532.455 -0.0613284 547.958 2.80821 563.203 17.1455C573.092 27.4008 578.586 40.2794 578.7 54.5224C578.707 55.2045 578.714 55.8866 578.72 56.5894C578.74 58.8372 578.752 61.085 578.762 63.333C578.766 64.1065 578.77 64.88 578.774 65.677C578.795 69.7768 578.809 73.8766 578.819 77.9765C578.83 82.178 578.864 86.3789 578.904 90.5802C578.93 93.8387 578.938 97.0972 578.942 100.356C578.947 101.903 578.958 103.449 578.977 104.996C579.164 121.522 575.268 137.156 563.691 149.575C544.078 167.457 521.283 166.856 496.148 167.177C493.659 167.215 491.169 167.254 488.68 167.294C482.628 167.389 476.576 167.474 470.523 167.552C477.748 176.45 485.244 185.072 493.023 193.489C493.593 194.106 494.163 194.723 494.75 195.358C509.892 211.601 522.605 222.851 545.558 223.666C556.584 223.177 567.553 221.771 578.523 220.552C578.523 239.032 578.523 257.512 578.523 276.552C562.493 276.632 562.493 276.632 555.6 276.649C550.917 276.661 546.234 276.675 541.552 276.703C537.771 276.724 533.991 276.736 530.211 276.741C528.777 276.745 527.343 276.752 525.909 276.763C510.79 276.873 500.558 275.945 489.118 265.317C486.61 262.782 484.164 260.2 481.732 257.593C480.8 256.608 479.867 255.623 478.933 254.639C476.937 252.537 474.945 250.431 472.955 248.323C469.787 244.974 466.591 241.653 463.386 238.339C462.842 237.776 462.297 237.213 461.736 236.633C459.494 234.315 457.251 231.998 455.008 229.681C448.689 223.152 442.399 216.599 436.188 209.967C431.229 204.672 426.212 199.438 421.125 194.264C418.446 191.536 415.803 188.789 413.226 185.963C403.714 175.561 395.05 166.892 380.336 165.829C373.041 165.507 365.788 165.855 358.523 166.552C358.524 167.113 358.525 167.673 358.526 168.251C358.548 181.879 358.565 195.507 358.575 209.135C358.58 215.726 358.588 222.316 358.599 228.906C358.61 235.261 358.616 241.615 358.618 247.969C358.62 250.399 358.624 252.829 358.629 255.26C358.636 258.651 358.637 262.041 358.637 265.432C358.641 266.448 358.644 267.464 358.648 268.51C358.646 269.429 358.645 270.347 358.644 271.293C358.645 272.096 358.646 272.899 358.646 273.726C358.523 275.552 358.523 275.552 357.523 276.552C339.703 276.552 321.883 276.552 303.523 276.552C303.523 185.472 303.523 94.3917 303.523 0.551706ZM358.523 55.5517C358.523 73.7017 358.523 91.8517 358.523 110.552C412.973 110.552 467.423 110.552 523.523 110.552C523.523 92.4017 523.523 74.2517 523.523 55.5517C469.073 55.5517 414.623 55.5517 358.523 55.5517Z" fill="white"/>
<path d="M671.507 0.0328494C673.27 0.0274159 675.032 0.0202865 676.795 0.0116091C681.541 -0.00648204 686.286 0.000384005 691.032 0.0131255C696.024 0.0233274 701.015 0.01384 706.007 0.00758082C714.386 0.000325195 722.765 0.00983712 731.143 0.0289431C740.799 0.0507078 750.454 0.0436549 760.11 0.0216375C768.434 0.00342381 776.758 0.000954234 785.082 0.0113922C790.039 0.0175944 794.995 0.0185536 799.952 0.00524622C804.614 -0.00639899 809.276 0.00186997 813.939 0.0248232C815.639 0.0300644 817.339 0.0286765 819.039 0.0197726C837.658 -0.0686648 852.318 4.08512 866.204 17.1442C876.915 28.2519 881.696 41.6301 881.645 56.8454C881.646 58.2545 881.646 58.2545 881.648 59.6921C881.649 62.8413 881.644 65.9904 881.638 69.1395C881.638 71.3964 881.638 73.6533 881.639 75.9101C881.639 82.0398 881.633 88.1695 881.626 94.2992C881.62 100.704 881.619 107.109 881.618 113.514C881.615 124.265 881.609 135.016 881.6 145.767C881.591 156.84 881.584 167.913 881.58 178.986C881.579 180.01 881.579 180.01 881.579 181.055C881.578 184.48 881.576 187.905 881.575 191.33C881.565 219.737 881.547 248.143 881.525 276.55C873.853 276.576 866.181 276.593 858.508 276.605C855.896 276.61 853.284 276.617 850.671 276.626C846.926 276.638 843.18 276.644 839.435 276.648C838.259 276.653 837.083 276.658 835.871 276.664C834.79 276.664 833.709 276.664 832.595 276.664C831.638 276.666 830.681 276.668 829.695 276.671C827.525 276.55 827.525 276.55 826.525 275.55C826.429 274.134 826.403 272.712 826.404 271.292C826.402 269.917 826.402 269.917 826.4 268.515C826.404 267.497 826.407 266.479 826.411 265.431C826.411 264.35 826.411 263.27 826.411 262.157C826.412 258.641 826.419 255.125 826.427 251.609C826.429 249.446 826.43 247.282 826.43 245.119C826.435 237.075 826.449 229.032 826.462 220.988C826.483 203.024 826.503 185.059 826.525 166.55C772.075 166.55 717.625 166.55 661.525 166.55C661.564 202.377 661.564 202.377 661.615 238.204C661.619 245.119 661.619 245.119 661.62 248.351C661.622 250.619 661.625 252.886 661.63 255.154C661.638 258.58 661.639 262.005 661.638 265.431C661.642 266.449 661.645 267.466 661.649 268.515C661.648 269.431 661.646 270.348 661.645 271.292C661.646 272.095 661.647 272.898 661.648 273.725C661.525 275.55 661.525 275.55 660.525 276.55C658.837 276.644 657.145 276.668 655.454 276.664C654.373 276.664 653.292 276.664 652.178 276.664C650.414 276.656 650.414 276.656 648.615 276.648C647.417 276.647 646.22 276.645 644.987 276.644C641.145 276.638 637.304 276.626 633.462 276.613C630.865 276.608 628.268 276.603 625.671 276.599C619.289 276.588 612.907 276.571 606.525 276.55C606.433 247.471 606.363 218.392 606.32 189.312C606.315 185.874 606.31 182.436 606.305 178.998C606.304 178.314 606.303 177.629 606.302 176.924C606.284 165.862 606.253 154.8 606.216 143.738C606.179 132.376 606.157 121.014 606.148 109.651C606.143 103.274 606.131 96.8971 606.102 90.52C606.075 84.511 606.066 78.5022 606.072 72.4932C606.071 70.2942 606.063 68.0953 606.048 65.8964C605.923 47.0685 608.114 31.096 621.65 16.8004C636.244 2.99413 652.238 -0.0680608 671.507 0.0328494ZM661.525 55.5504C661.525 73.7004 661.525 91.8504 661.525 110.55C715.975 110.55 770.425 110.55 826.525 110.55C826.525 92.4004 826.525 74.2504 826.525 55.5504C772.075 55.5504 717.625 55.5504 661.525 55.5504Z" fill="white"/>
<path d="M979.043 0.0985427C981.292 0.0996729 983.54 0.0990341 985.788 0.0967727C991.853 0.0956312 997.918 0.119049 1003.98 0.147069C1010.34 0.172176 1016.69 0.174432 1023.04 0.17917C1033.69 0.190166 1044.34 0.215103 1054.99 0.250886C1065.96 0.287682 1076.92 0.315957 1087.88 0.332918C1088.56 0.333969 1089.24 0.335019 1089.93 0.336102C1093.33 0.341323 1096.73 0.346378 1100.13 0.35135C1128.26 0.392722 1156.39 0.46641 1184.52 0.552644C1184.52 18.7026 1184.52 36.8526 1184.52 55.5526C1111.92 55.5526 1039.32 55.5526 964.524 55.5526C964.524 110.003 964.524 164.453 964.524 220.553C1037.12 220.553 1109.72 220.553 1184.52 220.553C1184.52 239.033 1184.52 257.513 1184.52 276.553C1156.1 276.598 1127.67 276.635 1099.25 276.656C1086.05 276.667 1072.85 276.681 1059.65 276.704C1048.14 276.724 1036.63 276.736 1025.12 276.741C1019.03 276.743 1012.94 276.749 1006.85 276.764C1001.11 276.778 995.371 276.782 989.629 276.779C987.531 276.779 985.433 276.783 983.335 276.791C960.762 276.87 941.695 275.646 924.27 259.459C911.281 245.854 909.068 229.668 909.12 211.711C909.114 209.928 909.107 208.144 909.099 206.361C909.081 201.545 909.083 196.729 909.088 191.912C909.091 187.879 909.085 183.846 909.079 179.813C909.065 170.293 909.067 160.772 909.078 151.251C909.09 141.456 909.076 131.662 909.049 121.867C909.027 113.432 909.02 104.997 909.026 96.5614C909.029 91.5348 909.027 86.5084 909.01 81.4818C908.994 76.7521 908.998 72.0229 909.017 67.2933C909.021 65.5668 909.018 63.8404 909.007 62.114C908.91 44.8502 912.422 29.7159 924.649 16.8026C940.755 1.56604 957.988 -0.0505514 979.043 0.0985427Z" fill="white"/>
<path d="M1212.52 0.550781C1230.67 0.550781 1248.82 0.550781 1267.52 0.550781C1267.52 73.1508 1267.52 145.751 1267.52 220.551C1340.12 220.551 1412.72 220.551 1487.52 220.551C1487.52 239.031 1487.52 257.511 1487.52 276.551C1459.1 276.596 1430.67 276.633 1402.25 276.654C1389.05 276.665 1375.85 276.679 1362.65 276.702C1351.14 276.722 1339.63 276.735 1328.12 276.739C1322.03 276.742 1315.94 276.748 1309.85 276.762C1304.11 276.776 1298.37 276.78 1292.63 276.777C1290.53 276.778 1288.43 276.781 1286.33 276.789C1263.76 276.868 1244.7 275.644 1227.27 259.457C1221.97 253.909 1218.32 247.683 1215.52 240.551C1215.27 239.906 1215.01 239.261 1214.75 238.597C1211.38 228.462 1212.13 217.825 1212.18 207.281C1212.18 205.023 1212.18 202.765 1212.18 200.507C1212.18 194.403 1212.2 188.298 1212.22 182.194C1212.24 175.805 1212.24 169.416 1212.24 163.027C1212.25 152.312 1212.27 141.597 1212.3 130.882C1212.33 119.85 1212.35 108.818 1212.36 97.7859C1212.36 97.1048 1212.36 96.4236 1212.36 95.7219C1212.37 92.3045 1212.37 88.8871 1212.37 85.4697C1212.4 57.1634 1212.46 28.8571 1212.52 0.550781Z" fill="white"/>
<path d="M1572.14 0.310456C1573.08 0.308747 1574.02 0.307039 1574.98 0.305278C1578.11 0.301998 1581.24 0.312963 1584.36 0.323915C1586.61 0.324479 1588.86 0.324161 1591.1 0.32303C1597.19 0.322456 1603.28 0.334207 1609.38 0.348177C1615.74 0.360689 1622.11 0.361856 1628.48 0.364228C1639.17 0.369736 1649.85 0.382224 1660.54 0.400086C1671.54 0.41846 1682.55 0.43261 1693.55 0.441102C1694.23 0.441627 1694.91 0.442153 1695.61 0.442694C1699.02 0.445304 1702.42 0.447832 1705.83 0.450318C1734.06 0.471032 1762.29 0.507892 1790.52 0.550965C1790.52 18.701 1790.52 36.851 1790.52 55.551C1717.92 55.551 1645.32 55.551 1570.52 55.551C1570.52 73.701 1570.52 91.851 1570.52 110.551C1643.12 110.551 1715.72 110.551 1790.52 110.551C1790.52 129.031 1790.52 147.511 1790.52 166.551C1717.92 166.551 1645.32 166.551 1570.52 166.551C1570.52 184.371 1570.52 202.191 1570.52 220.551C1643.12 220.551 1715.72 220.551 1790.52 220.551C1790.52 239.031 1790.52 257.511 1790.52 276.551C1762.1 276.596 1733.67 276.633 1705.25 276.655C1692.05 276.665 1678.85 276.679 1665.65 276.702C1654.14 276.722 1642.63 276.735 1631.12 276.739C1625.03 276.742 1618.94 276.748 1612.85 276.762C1607.11 276.776 1601.37 276.78 1595.63 276.777C1593.53 276.778 1591.43 276.782 1589.33 276.789C1566.76 276.868 1547.7 275.644 1530.27 259.457C1517.28 245.852 1515.07 229.666 1515.12 211.71C1515.11 209.926 1515.11 208.143 1515.1 206.359C1515.08 201.543 1515.08 196.727 1515.09 191.911C1515.09 187.878 1515.09 183.845 1515.08 179.812C1515.07 170.291 1515.07 160.77 1515.08 151.249C1515.09 141.454 1515.08 131.66 1515.05 121.865C1515.03 113.43 1515.02 104.995 1515.03 96.5598C1515.03 91.5331 1515.03 86.5067 1515.01 81.4801C1514.99 76.7505 1515 72.0212 1515.02 67.2916C1515.02 65.5652 1515.02 63.8387 1515.01 62.1123C1514.91 44.3679 1518.74 30.0902 1531.15 16.9064C1542.51 5.65127 1556.2 0.202937 1572.14 0.310456Z" fill="white"/>
</svg>
